<svg xmlns="http://www.w3.org/2000/svg"
 xmlns:xlink="http://www.w3.org/1999/xlink"
 width="103px" height="76px"  viewBox="0 0 103 76">
<path fill-rule="evenodd"  fill="#a4c58c"
 d="M26.170471,1.7104492 C31.162842,1.6313477 36.345398,1.7573242 40.437927,2.7836914 C42.4718,3.2944336 44.259705,3.3222656 46.105713,3.9550781 C47.45453,4.418457 48.89514,5.0356445 50.112427,5.7128906 C50.695496,6.0371094 51.14093,6.722168 51.8714,6.8842773 C52.212402,6.4018555 52.738403,6.2338867 53.23938,5.907715 C55.003967,4.7578125 57.23993,4.0478516 59.493713,3.3701172 C60.351196,3.1118164 61.042114,3.2109375 61.936707,2.9794922 C63.738586,2.5126953 66.05493,2.4487305 67.995544,2.0039062 C68.5166,2.0039062 69.03784,2.0039062 69.55902,2.0039062 C70.785706,1.737793 72.43811,2.1132812 73.85889,1.8081055 C74.75397,1.6162109 76.48224,1.6088867 77.37683,1.8081055 C78.792114,2.1235352 80.45245,1.7294922 81.676636,2.0039062 C82.197754,2.0039062 82.719055,2.0039062 83.240234,2.0039062 C84.24695,2.2348633 85.44678,2.1289062 86.562744,2.394043 C89.13452,3.0039062 91.84088,3.3173828 94.0874,4.150879 C96.76782,5.1450195 99.4707,6.163086 100.92786,8.348145 C101.7785,9.624023 101.61212,11.869141 101.61188,14.009766 C101.61188,17.978516 101.61188,21.94873 101.61188,25.916992 C101.61188,35.742188 101.61188,45.570312 101.61188,55.395508 C101.61188,61.08838 101.74866,67.0459 101.51428,72.57471 C100.9574,73.01904 100.68237,73.63721 99.852905,73.84375 C99.232056,73.99805 98.51819,73.57373 98.09387,73.4541 C96.922424,73.12158 95.61426,73.12695 94.47821,72.867676 C93.20972,72.578125 91.84308,72.73389 90.667114,72.47705 C90.17853,72.47705 89.68976,72.47705 89.20123,72.47705 C88.34851,72.29199 87.200195,72.50342 86.171875,72.282715 C84.29956,71.87842 81.808105,71.99072 79.72217,71.98926 C77.53247,71.98779 74.90845,71.55371 72.88159,71.98926 C72.02716,72.17334 70.87787,71.92969 70.14545,72.086914 C69.298584,72.086914 68.45148,72.086914 67.604614,72.086914 C66.471436,72.33057 64.88403,72.23877 63.793396,72.47705 C62.653564,72.54199 61.513123,72.60693 60.37317,72.67236 C58.386475,73.11914 56.186584,72.98633 54.118896,73.4541 C53.370422,73.62207 52.1131,74.06543 51.187256,73.84375 C48.682007,73.242676 45.65381,73.25293 43.076355,72.67236 C41.69348,72.36035 40.16577,72.56201 38.87433,72.282715 C37.473694,72.2168 36.072815,72.151855 34.672302,72.086914 C34.151123,72.086914 33.62982,72.086914 33.108765,72.086914 C31.814148,71.80957 29.341187,71.76709 28.02716,71.98926 C27.325317,72.1084 26.120361,71.83203 25.38861,71.98926 C23.141235,72.02197 20.89325,72.0542 18.645874,72.086914 C17.648743,72.30127 16.383362,72.03174 15.225586,72.282715 C12.581665,72.85303 9.49939,72.65625 7.016968,73.2583 C5.251587,73.686035 3.072754,74.2749 2.1307983,72.867676 C1.5154419,71.94873 1.8377075,69.510254 1.8377075,68.08496 C1.8377075,64.01807 1.8377075,59.950684 1.8377075,55.884277 C1.8377075,40.527832 1.8377075,25.167969 1.8377075,9.8125 C2.1677246,9.520508 2.185608,8.9296875 2.4239502,8.543457 C2.758606,8.000977 3.3843994,7.26416 3.8898315,6.8842773 C6.7703247,4.7192383 10.343201,3.8300781 14.443848,2.7836914 C17.126648,2.1000977 20.139893,2.416504 22.945618,1.8081055 C23.872131,1.6074219 25.45465,2.1621094 26.170471,1.7104492 ZM24.509155,5.907715 C24.118408,6.137207 23.382019,5.8876953 22.8479,6.0058594 C21.66333,6.2661133 20.39441,6.008301 19.1344,6.2978516 C14.304199,7.411133 9.044373,7.5146484 6.039612,10.397949 C6.039612,24.646973 6.039612,38.90088 6.039612,53.15088 C6.039612,57.02246 6.039612,60.89502 6.039612,64.7666 C6.039612,65.59424 5.8567505,68.75244 6.039612,69.061035 C6.1445923,69.13428 6.13208,69.11963 6.3328247,69.15869 C7.0373535,68.697754 8.222351,68.97705 9.16687,68.76807 C10.710876,68.42627 12.6710205,68.5249 14.248352,68.18213 C14.867126,68.18213 15.486267,68.18213 16.105164,68.18213 C17.196594,67.94824 18.641724,68.25928 19.91626,67.987305 C21.903076,67.56348 24.489197,67.79248 26.756775,67.791504 C35.052917,67.791016 42.3714,68.46777 49.526,69.353516 C49.942383,68.0874 49.62378,65.32373 49.62378,63.78955 C49.62378,59.690918 49.62378,55.590332 49.62378,51.4917 C49.62378,37.86035 49.62378,24.22461 49.62378,10.593262 C49.54535,10.478027 49.548218,10.428711 49.526,10.202637 C43.471558,6.345215 34.44922,5.98291 24.509155,5.907715 ZM53.825806,69.353516 C55.623657,69.240234 57.773193,68.96289 59.493713,68.572754 C60.84552,68.26611 62.34503,68.458496 63.598022,68.18213 C64.151794,68.18213 64.70557,68.18213 65.25928,68.18213 C66.73108,67.864746 68.72064,68.12012 70.24304,67.791504 C72.81622,67.791504 75.39014,67.791504 77.96326,67.791504 C84.857056,67.791016 91.37012,68.3999 97.40985,69.15869 C97.40985,49.541016 97.40985,29.91748 97.40985,10.299805 C97.04669,10.066895 96.80328,9.628418 96.43274,9.421875 C95.415344,8.85498 94.38318,8.685059 93.207886,8.250488 C88.53125,6.5200195 82.528076,5.909668 76.204285,5.907715 C71.75604,5.9072266 67.32446,5.9399414 63.69574,6.8842773 C63.03064,7.057129 62.597717,6.8935547 61.936707,7.0791016 C58.956177,7.9160156 55.771973,8.532227 53.825806,10.397949 C53.825806,30.047363 53.825806,49.703613 53.825806,69.353516 ZM15.909607,23.47705 C21.642029,23.47705 27.37622,23.47705 33.108765,23.47705 C36.30945,23.47705 39.1839,22.722168 39.16742,26.112793 C38.69043,26.644531 38.55847,27.31836 37.799377,27.577148 C36.587097,27.989746 33.899902,27.674805 32.424683,27.674805 C28.450928,27.674805 24.476196,27.674805 20.502686,27.674805 C17.221313,27.674805 14.317383,28.435547 14.346069,24.941406 C14.674438,24.595215 14.82135,24.035645 15.225586,23.77002 C15.4592285,23.6167 15.718445,23.65039 15.909607,23.47705 ZM65.94336,23.47705 C71.67584,23.47705 77.410034,23.47705 83.142334,23.47705 C85.07721,23.47705 88.28784,23.007324 88.810425,24.454102 C89.94141,25.601562 88.648254,27.578613 87.246765,27.577148 C86.64691,27.955078 83.16388,27.674805 82.16528,27.674805 C77.80072,27.674805 73.43494,27.674805 69.07037,27.674805 C67.05115,27.674805 64.77106,27.927734 64.57526,26.112793 C63.64447,24.954102 65.43994,23.913086 65.94336,23.47705 ZM15.909607,35.97168 C21.642029,35.97168 27.37622,35.97168 33.108765,35.97168 C36.31476,35.97168 39.183777,35.208496 39.16742,38.606934 C38.687134,39.14258 38.558228,39.80371 37.799377,40.07129 C36.618042,40.487793 33.87793,40.168457 32.424683,40.168457 C28.450928,40.168457 24.476196,40.168457 20.502686,40.168457 C17.225769,40.168457 14.317261,40.921387 14.346069,37.435547 C14.646606,37.11914 14.769165,36.618652 15.127808,36.362305 C15.372314,36.1875 15.695801,36.166504 15.909607,35.97168 ZM66.04114,35.97168 C71.77344,35.97168 77.50763,35.97168 83.240234,35.97168 C86.21484,35.97168 89.184265,35.376465 89.20123,38.41162 C88.72113,39.041016 88.62488,39.757324 87.83307,40.07129 C86.80365,40.479004 84.065796,40.168457 82.751526,40.168457 C78.777954,40.168457 74.80304,40.168457 70.82947,40.168457 C68.48285,40.168457 64.805725,40.745605 64.57526,38.606934 C64.23651,38.188477 64.49036,37.669434 64.57526,37.143066 C64.805725,36.964355 64.85205,36.637695 65.0639,36.459473 C65.3363,36.230957 65.76111,36.19336 66.04114,35.97168 ZM15.909607,48.465332 C21.153503,48.465332 26.398987,48.465332 31.642944,48.465332 C33.62976,48.465332 35.617126,48.465332 37.603943,48.465332 C38.429382,48.722656 38.645203,49.38379 39.16742,49.929688 C39.17975,51.351074 38.805298,52.210938 37.799377,52.56494 C36.55829,53.001953 33.65503,52.662598 32.13147,52.662598 C28.353333,52.662598 24.573914,52.662598 20.795776,52.662598 C19.400818,52.662598 16.852783,52.958496 15.714111,52.56494 C15.018066,52.32373 14.800903,51.676758 14.346069,51.19873 C14.303162,49.08838 14.87793,49.375977 15.909607,48.465332 ZM66.04114,48.465332 C71.77344,48.465332 77.50763,48.465332 83.240234,48.465332 C86.21979,48.465332 89.18402,47.864258 89.20123,50.90576 C88.72949,51.524414 88.63336,52.28076 87.83307,52.56494 C86.67743,52.975098 83.98181,52.662598 82.55609,52.662598 C78.64758,52.662598 74.737915,52.662598 70.82947,52.662598 C68.48285,52.662598 64.8056,53.239258 64.57526,51.101074 C64.23651,50.68213 64.49036,50.164062 64.57526,49.63672 C64.78949,49.472656 64.78363,49.234863 64.966064,49.05127 C65.24243,48.77295 65.73395,48.714355 66.04114,48.465332 Z"/>
</svg>