<svg xmlns="http://www.w3.org/2000/svg"
 xmlns:xlink="http://www.w3.org/1999/xlink"
 width="88px" height="75px"  viewBox="0 0 88 75">
<path fill-rule="evenodd"  fill="#a4c58c"
 d="M43.511597,1.0625 C44.899902,1.0327148 45.548462,1.6704102 46.441284,2.1367188 C47.945557,2.9213867 49.46997,3.6186523 50.93347,4.382324 C54.949097,6.4780273 59.02368,8.250488 63.042847,10.339355 C64.572266,11.134277 66.15967,11.8671875 67.73035,12.683105 C68.199585,12.926758 68.79309,13.402344 69.29285,13.562012 C74.565674,13.562012 79.84021,13.562012 85.11316,13.562012 C85.35144,13.840332 85.68005,13.925781 85.89441,14.246094 C86.385254,14.868652 86.18738,16.490234 86.18738,17.565918 C86.18738,20.430664 86.18738,23.29541 86.18738,26.160156 C86.18738,37.32422 86.18738,48.492188 86.18738,59.65625 C86.18738,62.78076 86.18738,65.90625 86.18738,69.03076 C86.18738,70.51123 86.39404,72.043945 85.503784,72.64404 C84.694214,73.28174 82.151855,72.9375 80.816284,72.9375 C76.71521,72.9375 72.61279,72.9375 68.5116,72.9375 C52.562622,72.9375 36.60901,72.9375 20.660034,72.9375 C16.038086,72.9375 11.414795,72.9375 6.7928467,72.9375 C5.1815186,72.9375 2.619995,73.28467 2.0076904,72.25342 C1.4766846,71.35986 1.8122559,69.03223 1.8123779,67.76172 C1.8123779,63.98584 1.8123779,60.208984 1.8123779,56.433594 C1.8123779,42.50244 1.8123779,28.566895 1.8123779,14.636719 C2.1743164,14.26416 2.5142822,13.924316 2.8865967,13.562012 C8.159546,13.562012 13.434082,13.562012 18.70691,13.562012 C19.074585,13.442871 19.532349,13.059082 19.878784,12.878418 C20.996582,12.296387 22.122314,11.779297 23.199097,11.218262 C26.511475,9.493164 29.88855,7.9418945 33.160034,6.2382812 C35.568726,4.9833984 38.018677,3.8574219 40.386597,2.625 C41.359253,2.118164 42.746582,1.8017578 43.511597,1.0625 ZM43.804565,4.382324 C43.09375,5.208008 40.865234,5.8793945 39.80066,6.4331055 C36.6521,8.070801 33.37683,9.674805 30.230347,11.316406 C29.48523,11.70459 26.110718,13.081543 25.835815,13.562012 C37.94397,13.562012 50.055786,13.562012 62.16394,13.562012 C62.16394,13.49707 62.16394,13.432129 62.16394,13.3671875 C60.976196,13.209473 58.653076,11.684082 57.574097,11.120605 C54.332764,9.429199 51.05249,8.022461 47.80847,6.335449 C46.75586,5.788574 45.027954,4.5424805 43.804565,4.382324 ZM4.937378,16.687012 C4.937378,34.393555 4.937378,52.105957 4.937378,69.81201 C30.97644,69.81201 57.023315,69.81201 83.06238,69.81201 C83.06238,52.105957 83.06238,34.393555 83.06238,16.687012 C57.023315,16.687012 30.97644,16.687012 4.937378,16.687012 ZM61.578003,26.062012 C67.61304,25.989746 70.593994,28.481934 72.61316,32.409668 C73.42883,33.996582 74.15918,36.929688 73.492065,39.34375 C73.13025,40.652832 72.61548,42.010254 71.929565,43.0542 C71.59265,43.567383 70.80066,44.06543 70.56238,44.6167 C70.56238,50.573242 70.56238,56.53174 70.56238,62.48828 C70.20044,62.86035 69.86035,63.200195 69.48816,63.56201 C68.936646,63.56006 68.48425,63.575195 68.12097,63.367188 C67.79553,63.00879 67.46997,62.65088 67.14441,62.29248 C66.16797,61.348633 65.19116,60.404297 64.21472,59.46045 C63.74292,58.98877 63.36975,58.200195 62.554565,58.09375 C60.829468,59.851074 59.10388,61.609375 57.378784,63.367188 C57.01526,63.57373 56.563232,63.56201 56.011597,63.56201 C55.85498,63.375 55.841797,63.509277 55.62097,63.367188 C55.32495,63.17627 55.182373,62.73877 54.937378,62.48828 C54.937378,56.53174 54.937378,50.573242 54.937378,44.6167 C52.79138,43.104492 50.863647,37.646484 52.203003,33.87451 C53.06311,31.452148 54.487915,29.385254 56.40222,28.015137 C57.30359,27.370605 58.521484,26.843262 59.624878,26.452637 C60.21924,26.242188 61.085938,26.385742 61.578003,26.062012 ZM15.386597,29.187012 C25.086182,29.187012 34.788574,29.187012 44.48816,29.187012 C44.719482,29.439453 45.19812,29.57129 45.367065,29.870605 C45.81714,30.669434 45.44348,31.654785 44.878784,32.019043 C44.069702,32.663086 39.567627,32.31201 38.042847,32.31201 C32.053955,32.31201 26.062988,32.31201 20.074097,32.31201 C17.371216,32.31201 14.305054,33.15039 14.312378,30.26123 C14.4852295,30.117676 14.462036,29.942871 14.605347,29.773438 C14.813843,29.526367 15.179565,29.435059 15.386597,29.187012 ZM61.773315,29.187012 C61.05725,29.382812 60.340942,29.577637 59.624878,29.773438 C57.71582,30.712402 56.109985,32.305664 55.328003,34.362793 C53.98413,37.898438 55.792114,40.89795 57.47644,42.663574 C57.639282,42.89209 57.802002,43.11963 57.96472,43.347656 C58.399048,43.609863 59.321045,43.898438 60.015503,44.226074 C60.791626,44.592773 62.373047,45.144043 63.72644,44.81201 C66.63818,44.098633 68.54651,42.88379 69.78113,40.515625 C72.44531,35.404297 68.60925,30.603027 64.703,29.382812 C63.864502,29.120117 62.830322,29.17627 61.773315,29.187012 ZM15.386597,35.43701 C21.961426,35.43701 28.53833,35.43701 35.11316,35.43701 C36.234375,35.81006 36.543335,37.575195 35.503784,38.269043 C34.7937,38.838867 31.634521,38.5625 30.328003,38.5625 C26.487305,38.5625 22.645386,38.5625 18.804565,38.5625 C16.385742,38.5625 14.299683,39.04004 14.312378,36.51172 C14.674316,36.13916 15.014282,35.79883 15.386597,35.43701 ZM15.386597,41.6875 C21.961426,41.6875 28.53833,41.6875 35.11316,41.6875 C35.269775,41.874023 35.282837,41.740234 35.503784,41.882324 C35.799927,42.073242 35.942383,42.510742 36.187378,42.76123 C36.219727,43.669434 36.030884,44.180664 35.503784,44.51953 C34.7937,45.089355 31.634521,44.81201 30.328003,44.81201 C26.487305,44.81201 22.645386,44.81201 18.804565,44.81201 C16.385742,44.81201 14.299683,45.29004 14.312378,42.76123 C14.557617,42.510742 14.699829,42.07373 14.995972,41.882324 C15.216309,41.740234 15.230103,41.873535 15.386597,41.6875 ZM58.062378,46.960938 C58.062378,50.6709 58.062378,54.382812 58.062378,58.09375 C58.12744,58.09375 58.192505,58.09375 58.25769,58.09375 C58.93225,57.05371 60.121216,56.229492 60.992065,55.359375 C61.36389,54.987305 61.738647,54.384766 62.261597,54.1875 C62.587036,54.1875 62.91272,54.1875 63.23816,54.1875 C64.161255,55.09131 65.157104,55.910645 66.07019,56.82373 C66.4845,57.23828 66.84021,57.878906 67.43738,58.09375 C67.43738,54.382812 67.43738,50.6709 67.43738,46.960938 C65.80249,47.21631 63.94287,48.48535 61.578003,47.93701 C60.477417,47.68164 59.0094,47.065918 58.062378,46.960938 ZM19.19519,56.726074 C18.47107,56.712402 17.77356,56.211426 17.437378,56.33545 C17.194824,56.61914 17.083618,57.12549 16.753784,57.3125 C15.55835,57.98828 14.849609,57.013184 14.312378,56.433594 C14.217163,53.5 15.414795,51.288574 16.656128,49.597168 C17.614624,48.291016 19.094482,49.159668 19.585815,50.28076 C20.260498,50.066895 20.694458,50.004395 21.441284,50.183594 C21.631592,50.46875 22.014282,50.72168 22.124878,51.06201 C22.124878,52.62451 22.124878,54.1875 22.124878,55.75 C22.190063,55.75 22.255127,55.75 22.32019,55.75 C22.32019,55.68506 22.32019,55.61914 22.32019,55.5542 C22.826782,54.85742 22.663208,53.9834 23.39441,53.503418 C23.682251,53.26416 24.023315,53.208008 24.566284,53.21045 C25.061523,53.654297 25.424438,53.722656 25.73816,54.382324 C26.226318,54.05713 26.714722,53.731445 27.203003,53.40576 C27.663086,53.20459 28.194824,53.186523 28.667847,53.015137 C28.906494,52.373535 29.17627,51.871094 30.035034,51.84326 C30.203491,51.740723 30.617188,51.791016 30.816284,51.940918 C31.324219,52.100586 31.67566,52.54834 31.69519,53.21045 C32.18152,54.245605 30.466797,56.12549 29.64441,56.33545 C29.10022,56.47461 28.760254,56.08008 28.277222,56.33545 C27.59961,56.693848 27.048584,57.527344 26.324097,57.89795 C25.785156,58.17383 24.988892,58.061523 24.468628,58.38623 C23.60559,59.313477 23.500244,60.46045 21.636597,60.4375 C21.492432,60.2666 21.318604,60.286133 21.148315,60.14453 C20.23108,59.378906 19.392944,58.188965 19.19519,56.726074 Z"/>
</svg>