<svg xmlns="http://www.w3.org/2000/svg"
 xmlns:xlink="http://www.w3.org/1999/xlink"
 width="93px" height="90px"  viewBox="0 0 93 90">
<path fill-rule="evenodd"  fill="#a4c58c"
 d="M59.574158,1.2495117 C59.899597,1.2495117 60.22522,1.2495117 60.55066,1.2495117 C60.707336,1.4370117 60.720398,1.3027344 60.941284,1.4453125 C61.237427,1.6362305 61.37976,2.0732422 61.62494,2.3237305 C61.72766,8.118652 60.117065,11.88623 57.718628,15.116699 C57.217896,15.791016 56.72229,16.5708 56.058533,17.070312 C55.170105,17.737793 54.285034,18.442383 53.324097,19.023438 C52.905884,19.27539 52.326355,19.319336 52.054565,19.706543 C51.806946,20.060059 51.76654,20.493164 51.566284,20.878418 C50.842896,22.270508 50.250732,23.69043 49.515503,25.175293 C47.970154,28.297363 46.29236,31.759277 45.21869,35.233887 C45.283813,35.233887 45.348877,35.233887 45.41394,35.233887 C46.123535,34.180664 47.330933,33.262695 48.343628,32.5 C49.05475,31.963867 49.67456,31.177246 50.39441,30.644531 C52.236206,29.280273 54.086365,28.079102 56.058533,26.83545 C57.357178,26.01709 58.52368,24.709473 60.55066,24.687012 C61.036682,25.27832 61.54834,25.372559 61.62494,26.444824 C61.030396,27.25879 60.91565,28.34375 60.453064,29.276855 C59.186523,31.833008 58.183594,34.692383 57.035034,37.382812 C57.13269,37.382812 57.230408,37.382812 57.328003,37.382812 C57.70807,36.61035 59.428467,35.58008 60.160095,35.039062 C62.32782,33.433594 64.24402,31.371094 66.410034,29.765625 C67.132385,29.229492 69.24896,27.912598 69.535095,27.128418 C69.69922,26.69336 69.22986,25.271484 69.43738,24.394043 C69.82129,22.771484 70.226746,21.330078 70.99994,20.097168 C72.36304,17.924805 74.64221,16.338379 77.347534,15.507324 C81.1734,14.33252 85.774475,16.911621 87.210815,18.827637 C88.016846,19.90332 88.88989,21.16504 89.35925,22.539062 C91.56024,28.981934 86.21979,34.154785 81.742065,35.429688 C79.980896,35.930664 78.164856,35.29248 76.566345,35.233887 C75.88483,36.097168 74.08148,36.83496 73.63666,37.773438 C75.260315,37.773438 77.094604,38.359375 78.51941,38.74951 C82.34558,39.797363 87.538025,40.606934 89.35925,43.534668 C89.94745,44.48047 89.74994,46.416992 89.74994,47.9292 C89.749695,52.93701 90.19281,55.04541 86.62488,56.71826 C86.71301,61.024414 85.38391,64.879395 84.085815,67.94873 C80.16272,77.225586 73.05505,86.00635 62.699097,88.74951 C56.905396,88.74951 51.109985,88.74951 45.316284,88.74951 C39.978333,88.74951 34.638733,88.74951 29.30066,88.74951 C28.020752,88.36865 26.582886,87.96777 25.39441,87.382324 C16.981506,83.2417 10.748474,75.88623 7.328003,66.776855 C6.5059204,64.58789 6.142456,62.18799 5.5701904,59.746094 C5.505127,58.73633 5.4400635,57.72754 5.374939,56.71826 C5.114441,56.58838 4.854004,56.458496 4.593628,56.327637 C3.8988647,55.84082 3.0891113,55.104004 2.640503,54.37451 C1.8483276,53.086914 2.2497559,48.901367 2.249878,46.85498 C2.249878,46.009277 2.249878,45.16211 2.249878,44.315918 C2.6724243,42.934082 3.8584595,42.19336 4.984253,41.483887 C8.442505,39.305664 13.045349,38.693848 17.679626,37.577637 C19.344727,37.176758 21.038696,37.27881 22.660095,36.89453 C23.278076,36.748047 24.2276,36.981445 24.515503,36.503906 C23.599426,35.487793 23.283447,33.78418 22.75769,32.401855 C21.586731,29.324219 20.973999,25.900879 20.023376,22.440918 C19.958252,21.822754 19.893127,21.204102 19.828003,20.585938 C19.338867,18.555664 18.910217,16.839844 21.683472,16.874512 C22.212524,17.3208 23.091736,17.20996 23.83197,17.460938 C25.621094,18.065918 27.485596,18.7583 29.105408,19.608887 C35.26599,22.844727 39.467102,27.729492 41.01941,35.62451 C41.247253,35.62451 41.47522,35.62451 41.703064,35.62451 C44.365173,30.88379 42.12329,23.878906 40.43347,19.999512 C33.775757,19.802734 29.145203,16.358398 26.370972,12.1875 C25.490234,10.862793 24.124939,9.19043 24.124939,7.1088867 C24.399902,6.7998047 24.450195,6.4677734 24.808472,6.2304688 C25.280518,5.849121 26.285095,5.9189453 27.152222,5.9370117 C28.923218,5.9746094 30.786499,6.3120117 32.230347,6.7182617 C37.010498,8.063965 40.636597,9.914551 42.289,14.335449 C42.598328,15.163574 42.674072,16.200195 42.87494,17.070312 C42.87494,17.428223 42.87494,17.786133 42.87494,18.144531 C43.40045,19.462402 44.29779,20.904785 44.828003,22.343262 C45.076782,23.018066 45.354187,25.47754 45.804626,25.761719 C45.883667,25.244629 46.198975,24.872559 46.390564,24.4917 C46.803894,23.668945 46.94287,22.863281 47.367065,22.050293 C47.894897,21.039062 48.70819,19.861816 49.124878,18.827637 C49.124878,18.07959 49.124878,17.330078 49.124878,16.582031 C49.59076,14.545898 49.621765,12.507324 50.296753,10.722168 C51.48108,7.5908203 53.51001,4.7978516 56.058533,3.0078125 C56.6568,2.586914 57.451843,2.1230469 58.109314,1.8359375 C58.62317,1.6113281 59.192505,1.5927734 59.574158,1.2495117 ZM58.109314,5.3515625 C57.546936,6.186035 56.376465,6.5898438 55.765564,7.4023438 C54.158203,9.5390625 52.485535,12.164551 52.44519,15.800781 C52.510254,15.800781 52.57538,15.800781 52.640503,15.800781 C53.25531,14.996094 54.368347,14.568848 54.984253,13.75 C56.568115,11.643555 58.25598,8.897461 58.304565,5.3515625 C58.239502,5.3515625 58.17444,5.3515625 58.109314,5.3515625 ZM39.554565,16.776855 C39.400818,11.897461 33.130615,9.696777 28.324097,9.159668 C28.324097,9.192383 28.324097,9.224609 28.324097,9.257324 C28.291626,9.257324 28.258972,9.257324 28.226501,9.257324 C28.226501,9.322266 28.226501,9.387695 28.226501,9.453125 C28.537537,9.703125 28.577576,10.099121 28.812439,10.429199 C29.282654,11.091797 29.873047,11.717773 30.374878,12.382324 C31.831238,14.312012 36.273315,16.622559 39.554565,16.776855 ZM76.46863,19.023438 C76.63257,20.032715 77.36957,20.90918 77.835815,21.659668 C79.30664,24.027832 80.71057,25.697754 83.01166,27.226074 C83.50409,27.55371 85.49133,28.995605 85.941345,28.59375 C86.85309,27.47168 86.7453,24.634277 86.234314,23.222168 C85.26062,20.533203 83.979675,19.390625 81.05847,18.632812 C80.5293,18.495117 79.32434,18.238281 78.51941,18.437012 C77.85474,18.601074 77.15088,18.912598 76.46863,19.023438 ZM22.953064,20.585938 C22.984375,22.478027 23.816956,25.298828 24.32019,26.933594 C25.9198,32.129883 27.316345,37.015625 30.960815,40.117188 C31.57019,40.635254 32.111633,41.47412 32.816284,41.87451 C33.24347,42.117676 33.745483,42.03955 34.18347,42.265137 C34.716064,42.53955 35.09613,43.061035 35.74597,43.2417 C35.74597,43.176758 35.74597,43.111816 35.74597,43.046387 C35.0744,42.196777 34.810852,40.990234 34.281128,40.019043 C33.07776,37.813965 31.634216,35.60205 30.179565,33.57373 C29.309204,32.36035 27.253174,30.751953 27.249878,28.88623 C27.856262,28.23291 27.954102,27.789062 29.30066,27.8125 C31.890198,30.414062 34.052795,33.608887 36.03894,36.796387 C36.472656,37.492676 37.68872,40.42285 38.18744,40.702637 C38.18744,39.726562 38.18744,38.74951 38.18744,37.773438 C37.9209,37.335938 38.13867,36.700684 37.992065,36.11328 C37.5968,34.52832 37.30072,32.79785 36.624878,31.425781 C34.550293,27.21289 31.487793,24.50586 27.347595,22.343262 C26.13379,21.709473 24.593445,20.675781 22.953064,20.585938 ZM83.597595,31.132324 C82.5921,30.948242 81.77692,30.171875 81.05847,29.66748 C79.14282,28.32373 77.4314,26.773438 76.078,24.882324 C75.6134,24.233398 74.36096,21.430176 73.73425,21.269043 C73.44519,22.295898 72.85571,23.215332 72.56238,24.4917 C72.37952,25.287598 72.61572,26.401855 72.75775,26.933594 C73.53229,29.833496 74.64966,31.14746 77.347534,32.109375 C78.058655,32.362305 79.43024,32.76758 80.57019,32.5 C81.713196,32.230957 82.63031,31.703125 83.597595,31.425781 C83.597595,31.328125 83.597595,31.22998 83.597595,31.132324 ZM56.3515,30.253906 C55.384827,31.236328 53.966187,31.884766 52.835876,32.694824 C50.046814,34.694824 47.1994,37.581055 45.21869,40.409668 C44.088562,42.023438 42.918518,43.75586 42.87494,46.464844 C42.90741,46.464844 42.940063,46.464844 42.972534,46.464844 C42.972534,46.49756 42.972534,46.529785 42.972534,46.5625 C50.59485,45.105957 51.747864,41.71924 54.398315,35.429688 C55.090576,33.78662 56.081055,32.007324 56.546753,30.253906 C56.48169,30.253906 56.416626,30.253906 56.3515,30.253906 ZM44.437378,51.24951 C46.15973,51.270508 48.366455,51.48633 49.90619,51.151855 C50.59088,51.003418 51.517822,51.34375 52.054565,51.0542 C52.329834,50.90625 52.58075,50.462402 52.835876,50.27295 C54.01892,49.395508 55.09491,48.398438 56.253784,47.538574 C59.654907,45.015137 62.8078,42.24756 66.21472,39.726562 C66.616394,39.4292 67.70618,38.640137 67.972534,38.26123 C68.18823,37.95459 68.24353,37.572266 68.55847,37.382812 C68.90173,37.175293 69.31683,37.211426 69.63269,36.992188 C70.50177,36.388184 71.22479,35.476562 72.0741,34.84326 C72.56329,34.478516 73.41077,34.078125 73.63666,33.476074 C72.65277,33.135742 71.25226,31.291992 70.804565,30.351074 C69.31305,31.222168 68.16443,32.659668 66.80066,33.671387 C62.691956,36.720215 58.981445,40.18457 54.886658,43.2417 C53.223816,44.4834 51.871338,46.234863 50.10144,47.34375 C48.31006,48.465332 46.398926,48.773438 44.242065,49.589355 C44.40796,50.05127 44.441833,50.586426 44.437378,51.24951 ZM25.199097,39.726562 C24.733154,40.001465 24.069336,39.774414 23.441284,39.921387 C22.09967,40.23584 20.58789,40.154297 19.14447,40.507812 C15.802185,41.325684 12.314819,41.768555 9.378784,42.851074 C8.198303,43.28662 5.857544,43.70166 5.472534,44.8042 C5.065674,45.55371 8.284912,47.276855 9.476501,46.953125 C11.830566,46.31299 14.608826,45.9917 17.191284,45.390625 C17.516785,45.390625 17.842346,45.390625 18.167847,45.390625 C19.906372,44.98877 22.08606,45.012207 23.83197,44.609375 C24.189941,44.609375 24.548096,44.609375 24.906128,44.609375 C26.06366,44.34326 27.590881,44.28955 28.714722,44.02295 C29.386902,43.86377 29.905457,44.14453 30.277283,43.73047 C28.99884,42.97119 27.234497,41.013184 26.468689,39.726562 C26.045471,39.726562 25.622253,39.726562 25.199097,39.726562 ZM70.316284,40.409668 C69.74634,40.979492 69.01782,41.390137 68.36322,41.87451 C67.75299,42.32617 67.21503,42.984375 66.60541,43.43701 C66.19672,43.740234 65.659546,43.935547 65.43353,44.413574 C65.791504,44.413574 66.14966,44.413574 66.50769,44.413574 C67.33154,44.91748 70.290955,44.711426 71.48816,45.0 C73.69092,45.530273 76.107544,45.543945 78.32416,46.171875 C79.512695,46.507812 80.96588,46.98535 82.13275,47.245605 C83.2204,47.48828 86.52759,45.728516 86.62488,44.8042 C86.39703,44.543945 86.16919,44.28369 85.941345,44.02295 C84.5036,43.143066 82.84558,43.03711 81.05847,42.46045 C77.84772,41.424805 73.98041,40.871094 70.316284,40.409668 ZM61.917908,47.14795 C61.361694,47.67383 60.683533,48.055664 60.062378,48.515625 C59.620056,48.842773 59.234924,49.359375 58.792847,49.6875 C58.325806,50.03369 57.585144,50.31787 57.328003,50.859375 C58.011597,50.859375 58.69525,50.859375 59.378784,50.859375 C60.193604,50.371094 63.34131,50.737793 64.55463,50.46875 C65.721924,50.209473 67.0824,50.371582 68.36322,50.078125 C70.59375,49.566406 73.07861,49.450684 75.29675,49.003906 C75.29675,48.97119 75.29675,48.938477 75.29675,48.90625 C75.1991,48.873535 75.1015,48.84082 75.003784,48.808105 C74.22748,48.33789 72.717224,48.56494 71.68347,48.319824 C69.45117,47.79004 66.698425,47.8584 64.35925,47.34375 C63.488953,47.151367 62.630493,47.391113 61.917908,47.14795 ZM24.124939,47.734375 C23.665466,48.01953 23.007507,47.78369 22.367126,47.9292 C20.534363,48.34668 18.019958,48.6875 16.01941,48.71045 C16.01941,48.77539 16.01941,48.84082 16.01941,48.90625 C18.200195,49.231445 20.381592,49.55664 22.562378,49.882324 C23.1073,49.07422 24.540466,48.48242 24.906128,47.734375 C24.645752,47.734375 24.385254,47.734375 24.124939,47.734375 ZM32.816284,48.319824 C32.48755,48.52832 32.115295,48.39258 31.64441,48.515625 C30.559692,48.79785 29.339539,49.051758 28.324097,49.4917 C26.012878,50.49414 24.145996,52.15576 23.148315,54.472656 C22.843079,55.181152 22.951355,55.793457 22.75769,56.620605 C22.583496,57.364746 22.318848,59.013184 22.562378,60.039062 C22.757568,60.86133 22.924438,62.01953 23.148315,62.77295 C23.576965,64.2168 23.810425,65.467285 24.32019,66.6792 C24.524231,67.16455 24.452026,67.71484 24.906128,67.94873 C25.364746,66.49414 26.626831,65.21582 27.44519,64.04297 C29.841919,60.605957 32.2594,57.192383 35.648315,54.765137 C36.474,54.174316 37.603516,53.567383 38.578003,53.202637 C39.273254,52.942383 39.871643,52.901367 40.43347,52.51953 C40.72644,52.161133 41.01947,51.803223 41.312378,51.444824 C41.366943,50.30664 41.039307,48.672363 40.042847,48.61328 C39.22412,49.257812 37.250854,49.740234 36.234253,50.27295 C33.908386,51.492676 31.464844,53.268066 29.984314,55.351562 C28.982727,56.760254 29.142822,59.043945 26.761658,59.06201 C26.161987,58.379395 25.66803,58.41455 25.687378,57.01123 C26.1781,56.453613 26.271484,55.507324 26.66394,54.86328 C27.153137,54.05957 27.756958,53.274902 28.324097,52.51953 C28.89862,51.753906 30.557617,50.25586 31.35144,49.6875 C31.930908,49.271973 32.98163,48.96582 33.304565,48.319824 C33.141846,48.319824 32.979004,48.319824 32.816284,48.319824 ZM5.374939,48.90625 C5.364258,50.288086 5.234741,51.98828 5.472534,53.202637 C7.5166016,54.356934 9.666443,55.086426 12.11322,55.93701 C13.298706,56.34912 14.607117,56.396973 15.72644,56.71826 C16.182129,56.84961 19.319763,57.223633 19.339722,57.206543 C19.694824,56.78174 19.45514,56.20752 19.63269,55.546387 C19.87732,54.635742 20.294556,53.70752 20.511597,52.81201 C20.479065,52.81201 20.446472,52.81201 20.41394,52.81201 C20.41394,52.779297 20.41394,52.74707 20.41394,52.714355 C18.99646,52.688477 17.527649,52.34912 16.312378,52.03076 C15.759033,51.96582 15.205505,51.90088 14.652222,51.83545 C12.617554,51.28418 10.430786,50.990723 8.499878,50.27295 C7.4729614,49.89209 6.43396,49.120117 5.374939,48.90625 ZM86.429565,48.90625 C86.059326,49.243652 85.65729,49.24463 85.160034,49.4917 C83.18024,50.475098 80.66559,50.961426 78.32416,51.640137 C77.7287,51.81299 77.37964,51.67334 76.7616,51.83545 C74.77051,52.358887 72.302124,52.503906 70.21863,53.007812 C69.27472,53.072754 68.330444,53.137695 67.3866,53.202637 C65.93646,53.540527 63.980347,53.45117 62.503845,53.789062 C61.885376,53.789062 61.266724,53.789062 60.648315,53.789062 C59.79193,53.979004 58.513306,53.88037 57.62097,54.08203 C57.002563,54.08203 56.383972,54.08203 55.765564,54.08203 C54.972107,54.257324 53.749878,53.97754 52.835876,54.179688 C50.194702,54.763184 45.811707,54.371582 42.77722,54.37451 C41.87848,55.49463 40.545715,55.646973 39.16394,56.327637 C38.42743,56.690918 37.750244,57.23535 37.11316,57.695312 C36.654602,58.02539 35.954773,58.30078 35.74597,58.867188 C36.65735,58.867188 37.56897,58.867188 38.480408,58.867188 C39.134766,59.27539 40.556824,58.78418 41.410095,58.964844 C42.286377,59.149414 43.592896,59.06201 44.63275,59.06201 C46.55304,59.06201 48.47406,59.06201 50.39441,59.06201 C51.24823,59.051758 52.613037,59.04492 53.421814,58.867188 C55.004517,58.518066 56.800232,58.98242 58.20691,58.671387 C59.203247,58.45166 60.31079,58.659668 61.136597,58.476562 C61.68994,58.476562 62.24347,58.476562 62.796814,58.476562 C64.265625,58.146973 66.151306,58.22119 67.58191,57.890137 C68.9884,57.56543 70.311646,57.833496 71.68347,57.49951 C74.17816,56.893066 76.98346,56.637207 79.30066,55.93701 C79.79663,55.787598 80.07495,55.894043 80.57019,55.742188 C82.11395,55.268066 83.73059,54.65039 85.06244,53.983887 C85.651,53.689453 86.293945,53.6416 86.52728,53.007812 C86.84143,52.512207 86.635864,49.73535 86.62488,48.90625 C86.55975,48.90625 86.49463,48.90625 86.429565,48.90625 ZM8.69519,58.085938 C8.350159,59.15918 8.992432,61.236816 9.281128,62.1875 C9.698059,63.559082 9.775757,64.729004 10.25769,65.995605 C10.995239,67.93359 12.049927,69.76904 12.992126,71.464355 C16.585693,77.93164 21.989807,83.29492 29.691345,85.625 C35.777893,85.625 41.866333,85.625 47.953003,85.625 C52.73767,85.625 57.523804,85.625 62.30847,85.625 C70.79724,83.03662 76.367676,76.9043 80.08197,69.51123 C81.69348,66.3042 83.07117,62.677734 83.40222,58.183594 C83.36975,58.183594 83.3371,58.183594 83.30463,58.183594 C83.30463,58.15088 83.30463,58.118164 83.30463,58.085938 C80.64319,59.20166 77.33319,59.493164 74.32019,60.233887 C73.12042,60.52881 72.12042,60.33789 70.90222,60.62451 C68.40991,61.210938 65.38971,61.016113 62.796814,61.601074 C62.276,61.601074 61.755066,61.601074 61.234253,61.601074 C59.829895,61.911133 57.92871,61.856445 56.449097,61.9917 C55.602783,61.9917 54.756287,61.9917 53.910034,61.9917 C52.181396,62.370605 49.453552,62.1875 47.46472,62.1875 C44.37262,62.154785 41.27948,62.12207 38.18744,62.089844 C37.42505,61.921387 36.238586,62.186523 35.355347,61.9917 C34.604614,61.82617 33.722046,61.79834 32.816284,61.796875 C32.265686,62.756836 31.393188,63.54297 30.765503,64.43359 C29.823608,65.76904 29.100708,67.13037 28.226501,68.53516 C27.895264,69.066895 27.36029,69.64307 27.054626,70.194824 C26.335327,71.49365 26.191956,73.145996 24.124939,73.12451 C22.177612,71.15381 21.176453,67.39551 20.218628,64.43359 C19.935913,63.559082 19.92633,61.13379 19.535034,60.527344 C19.535034,60.49463 19.535034,60.462402 19.535034,60.4292 C17.5177,60.42383 14.923096,59.753418 13.187378,59.257812 C11.59021,58.80078 10.063232,58.71924 8.69519,58.085938 ZM72.0741,63.75 C72.39966,63.75 72.72522,63.75 73.05072,63.75 C73.207275,63.936523 73.2204,63.802246 73.441284,63.944824 C73.737366,64.13574 73.87982,64.57373 74.12488,64.82373 C74.159546,66.779785 73.17578,68.933105 72.56238,70.39014 C70.5083,75.26904 68.45044,78.99463 63.87097,81.328125 C62.65503,81.947266 59.911377,82.99756 57.718628,82.5 C55.569275,82.01172 53.60846,81.62402 51.859253,80.7417 C51.266846,80.44336 50.624878,79.77295 50.003784,79.569824 C49.28772,79.569824 48.571472,79.569824 47.855408,79.569824 C45.06543,78.94678 39.709595,78.98389 39.749878,75.76172 C40.356323,75.10791 40.454163,74.66455 41.80066,74.68701 C42.780884,75.82959 47.792664,76.78174 50.10144,76.34717 C50.636536,74.90967 53.07013,73.42236 54.30072,72.53906 C58.081482,69.82471 62.50702,67.74658 66.99597,65.703125 C68.325806,65.09717 69.72656,64.691895 70.99994,64.140625 C71.4397,63.949707 71.76654,64.032715 72.0741,63.75 ZM70.023315,67.851074 C69.177246,68.5708 67.73163,68.70459 66.703,69.21826 C63.881958,70.62842 60.969055,71.916016 58.402283,73.51514 C57.370483,74.1582 55.859497,74.68408 55.179626,75.66406 C55.342346,75.66406 55.505066,75.66406 55.667847,75.66406 C56.077637,75.35742 56.662415,75.444336 57.230408,75.27344 C58.427307,74.913086 59.376953,74.399414 60.843628,74.49219 C61.051697,74.76807 61.375,75.11719 61.62494,75.37109 C61.6557,76.0708 61.58612,76.33301 61.429565,76.93359 C59.930054,77.84375 57.7948,78.328125 55.86316,78.788574 C55.86316,78.854004 55.86316,78.918945 55.86316,78.98389 C56.585876,79.01709 57.29016,79.20947 57.91394,79.37451 C59.094543,79.68799 60.752197,79.254395 61.52722,78.98389 C65.08777,77.74365 66.75348,75.59766 68.36322,72.44141 C68.869385,71.44873 69.36981,70.28076 69.828064,69.21826 C69.95416,68.92627 70.21576,68.06201 70.12103,67.94873 C70.12103,67.916016 70.12103,67.88379 70.12103,67.851074 C70.08838,67.851074 70.05591,67.851074 70.023315,67.851074 Z"/>
</svg>